Simulation
nRows=26
nColumns=15
endheader
time  TH_x TH_y TH_z SC_y  SC_z  SC_x  AC_y  AC_z  AC_x  GH_y  GH_z  GH_yy  EL_x  PS_y
0.0  0.000000  0.000000  0.000000  -40.97484877243662  6.293857566463173  5.843338816418566  46.3091754468718  -4.421275663508366  -0.09397952030282677  7.024587157777837  4.150459294969865  16.547169356192146  22.854258753937295  120.000000
0.028900000000000006  0.000000  0.000000  0.000000  -40.837486244238086  5.685469635284149  4.88252491091713  46.14368162927538  -3.5706487043860813  -0.09650361864752986  2.4860353729441  5.45257965188758  21.181720723446364  22.7893210202455  120.000000
0.05780000000000001  0.000000  0.000000  0.000000  -40.686342945002075  5.002838277622743  3.911339176596069  45.99694316032927  -2.796945912609164  -0.10413490463549036  0.0065783225277336686  6.724702972881278  23.742098236683233  22.711428867817776  120.000000
0.08670000000000001  0.000000  0.000000  0.000000  -40.53107804524011  4.289428728484736  2.9360672566267203  45.866491469451596  -2.113923028867996  -0.10924467186627297  -1.3231829066969008  7.945547424229633  25.11105820430538  22.60509571354421  120.000000
0.11560000000000002  0.000000  0.000000  0.000000  -40.390751696802276  3.563876323286949  1.9636631971709573  45.747138283655715  -1.5164695958793393  -0.1004281115151074  -1.9536270035098178  9.110465249983443  25.71053188982213  22.456817911566013  120.000000
0.14450000000000002  0.000000  0.000000  0.000000  -40.281243730640014  2.848686567216425  1.0042415884863287  45.64505353933252  -0.998454085525077  -0.06287929926911075  -2.10657112966449  10.221627812410656  25.742741352041183  22.26741623556477  120.000000
0.17340000000000003  0.000000  0.000000  0.000000  -40.21016193581471  2.1613392848164237  0.06840123661354962  45.5697381486215  -0.5461346781705624  0.01320389257563653  -1.950113155540492  11.289892800209492  25.368524484489278  22.053792772480648  120.000000
0.20230000000000004  0.000000  0.000000  0.000000  -40.17898155487874  1.5160768460126526  -0.8340132307920393  45.52786195252517  -0.14196700277903937  0.13494950501430183  -1.6384115993162478  12.333786363024712  24.745797231466295  21.84278306814185  120.000000
0.23120000000000004  0.000000  0.000000  0.000000  -40.18344762311674  0.9241472361879923  -1.694879693602513  45.52203406913591  0.23339296871889093  0.3064228708372092  -1.3100080707637338  13.376217008653514  24.026033297568613  21.668261533407527  120.000000
0.26010000000000005  0.000000  0.000000  0.000000  -40.21607317829877  0.3955936213572034  -2.509382256075664  45.5515273661054  0.5978607273478775  0.5296713027493661  -1.074109492899498  14.442447400371428  23.33555754408298  21.56357096804103  120.000000
0.28900000000000003  0.000000  0.000000  0.000000  -40.26801475578705  -0.06140990291956583  -3.2748635741332306  45.61435580202451  0.9662256577849837  0.8021045489156509  -0.9996514273893985  15.557833439594486  22.759853442468646  21.555780269252818  120.000000
0.31790000000000007  0.000000  0.000000  0.000000  -40.33284062270332  -0.44177973806499843  -3.9907700154604817  45.70537612593043  1.3485845791320974  1.1191829369390764  -1.1184905484119727  16.745903498614485  22.342636810081707  21.6584305323911  120.000000
0.34680000000000005  0.000000  0.000000  0.000000  -40.40783406760455  -0.7458808089905906  -4.654891968116324  45.81844611367995  1.748792376923801  1.4716105063564353  -1.426996166720636  18.026086221062847  22.084640967728458  21.86747920649384  120.000000
0.3757000000000001  0.000000  0.000000  0.000000  -40.49524165524616  -0.977002856050059  -5.261677915968014  45.948222169766325  2.163121815950409  1.8477349030688628  -1.8911769126532902  19.41204074552832  21.94864551007482  22.160732342365268  120.000000
0.40460000000000007  0.000000  0.000000  0.000000  -40.60144498996603  -1.1378421681411632  -5.804002558026781  46.09263767743998  2.582300593682248  2.2368607210288527  -2.4545195009267817  20.909783080972574  21.869002449663803  22.501716179243797  120.000000
0.4335000000000001  0.000000  0.000000  0.000000  -40.73669603444546  -1.2311685052919081  -6.27585527656501  46.25251012295601  2.9948829084655646  2.6322480116918365  -3.0551882257628136  22.51821883681216  21.77207648403837  22.845939485086067  120.000000
0.4624000000000001  0.000000  0.000000  0.000000  -40.912498666218944  -1.259680539561896  -6.682652004163882  46.43077753862435  3.39641218372953  3.0380021461268973  -3.6376096810080707  24.22964566814912  21.591342039592256  23.149317849644262  120.000000
0.49130000000000007  0.000000  0.000000  0.000000  -41.13931230640872  -1.2252517953244124  -7.037772513907044  46.632552247018566  3.7880305217942656  3.4654339543271004  -4.158636989829892  26.032426456260662  21.27701560054746  23.37595419139757  120.000000
0.5202000000000001  0.000000  0.000000  0.000000  -41.42536999987293  -1.1292048247686595  -7.352586140361317  46.86284618344114  4.1708893292465  3.9256939999493015  -4.591497836501489  27.912600014335222  20.802320916234404  23.503803598567085  120.000000
0.5491000000000001  0.000000  0.000000  0.000000  -41.776434239074106  -0.9720689467951134  -7.635219942037616  47.126196762704424  4.545297083806654  4.427787067371196  -4.924269204325271  29.855295730591816  20.16295107166601  23.526017709709844  120.000000
0.5780000000000001  0.000000  0.000000  0.000000  -42.195432657089626  -0.7528339113099289  -7.8908002097292185  47.42574443402473  4.911680980896666  4.979021853776682  -5.155910617690835  31.844210859546198  19.37205722312208  23.449450223011965  120.000000
0.6069000000000001  0.000000  0.000000  0.000000  -42.684032301338256  -0.46803809578911104  -8.120672780903705  47.7630353373225  5.270968467977228  5.585400198404473  -5.291838386029031  33.86148902229364  18.453785500094927  23.29114707934372  120.000000
0.6358000000000001  0.000000  0.000000  0.000000  -43.24091931483668  -0.11198115499458282  -8.321760500160345  48.1379250873246  5.6266695589431075  6.249551186944271  -5.342500824819282  35.88641027374523  17.437438400982632  23.072820959688098  120.000000
0.6647000000000002  0.000000  0.000000  0.000000  -43.8612205973383  0.3221085320977147  -8.485492408977247  48.54815702337105  5.986560346936889  6.96943149341126  -5.323173049941534  37.89415820010132  16.353549487994233  22.81653792394469  120.000000
0.6936000000000001  0.000000  0.000000  0.000000  -44.534340310716765  0.8406241270028987  -8.597613151288597  48.99105079238492  6.362728185522471  7.737937967862482  -5.251492667778699  39.852835653137106  15.22811340174597  22.541253472232746  120.000000
0.7225000000000001  0.000000  0.000000  0.000000  -45.244503457075815  1.4430405389039376  -8.636971699815719  49.46091998466776  6.769971681961941  8.54508367668546  -5.146974566411717  41.72209677734903  14.080573730626906  22.260947249826774  120.000000
